<svg width="24" height="24" viewBox="0 0 24 24" fill="none" xmlns="http://www.w3.org/2000/svg">
<path d="M4 8.5H14C14.8269 8.5 15.5 9.17314 15.5 10V20C15.5 20.8269 14.8269 21.5 14 21.5H4C3.17314 21.5 2.5 20.8269 2.5 20V10C2.5 9.17314 3.17314 8.5 4 8.5Z" fill="white" stroke="white"/>
<path d="M10 2.5H20C20.3978 2.5 20.7794 2.65804 21.0607 2.93934C21.342 3.22064 21.5 3.60218 21.5 4V14C21.5 14.3978 21.342 14.7794 21.0607 15.0607C20.7794 15.342 20.3978 15.5 20 15.5H18.5V8C18.5 7.33696 18.2366 6.70107 17.7678 6.23223C17.2989 5.76339 16.663 5.5 16 5.5H8.5V4C8.5 3.60218 8.65804 3.22064 8.93934 2.93934C9.22064 2.65804 9.60218 2.5 10 2.5Z" fill="white" stroke="white"/>
</svg>
